# xmcd CD database file
#
# Track frame offsets:
#	150
#	21251
#	36876
#	39164
#	49341
#	52492
#	61005
#	75054
#	93623
#	106726
#	119429
#	131939
#	157840
#	174431
#
# Disc length: 2500 seconds
#
# Revision: 1
# Processed by: cddbd v1.5.2PL0 Copyright (c) Steve Scherf et al.
# Submitted via: CDex 1.51
#
DISCID=b009c20e
DTITLE=Wicca experience - Wicca experience
DYEAR=1900
DGENRE=New Age
TTITLE0=Fundación y fuga
TTITLE1=O Espírito
TTITLE2=Texto I
TTITLE3=Absolution
TTITLE4=Texto II
TTITLE5=Song to the Secret Name of the Star Goddes
TTITLE6=Cântico para o Deus
TTITLE7=Purvata
TTITLE8=Lua, Mãe Lua
TTITLE9=Hino de São Basílio
TTITLE10=Ventos do Oriente
TTITLE11=Transe
TTITLE12=Texto III
TTITLE13=Vou Banindo
EXTD=
EXTT0=
EXTT1=
EXTT2=
EXTT3=
EXTT4=
EXTT5=
EXTT6=
EXTT7=
EXTT8=
EXTT9=
EXTT10=
EXTT11=
EXTT12=
EXTT13=
PLAYORDER=
